<?xml version="1.0" encoding="UTF-8"?>
<!DOCTYPE svg>
<svg xmlns="http://www.w3.org/2000/svg" version="1.1" width="2000px" height="1600px" viewBox="-0.5 -0.5 2000 1600">
  <g>
    <rect x="549" y="540" width="271" height="66" fill="#6a00ff" stroke="none" pointer-events="all" />
    <rect x="258" y="360" width="135" height="134" fill="#f0a30a" stroke="none" pointer-events="all" />
    <text x="326" y="431" fill="#000000" font-family="Helvetica" font-size="12px" text-anchor="middle">TOILETTES</text>
    <rect x="252" y="191" width="202" height="169" fill="#000" stroke="none" pointer-events="all" />
    <rect x="271" y="729" width="275" height="236" fill="#6a00ff" stroke="none" pointer-events="all" />
    <rect x="817.94" y="729" width="13" height="236" fill="#6a00ff" stroke="none" transform="rotate(-2,824.44,847)" pointer-events="all" />
    <rect x="267.28" y="729" width="8.67" height="231.33" fill="#6a00ff" stroke="none" transform="rotate(-2,271.62,844.66)" pointer-events="all" />
    <path d="M 251 191 L 251 583 L 265 972 L 843 972 L 831 723 L 942 723 L 938 382 L 476 388 L 455 188 L 251 199" fill="none" stroke="#000000" stroke-width="15" stroke-miterlimit="10" pointer-events="stroke" />
    <path d="M 260 722 L 478 722" fill="none" stroke="#000000" stroke-width="15" stroke-miterlimit="10" pointer-events="stroke" />
    <rect x="393" y="390" width="543" height="150" fill="#000" stroke="none" pointer-events="all" />
    <rect x="393" y="351" width="82" height="62" fill="#000" stroke="none" pointer-events="all" />
    <rect x="393" y="531" width="156" height="40" fill="#000" stroke="none" pointer-events="all" />
    <path d="M 827 538 L 827 672" fill="none" stroke="#000000" stroke-width="15" stroke-miterlimit="10" pointer-events="stroke" />
    <rect x="751" y="606" width="73" height="58.5" fill="#000" stroke="none" pointer-events="all" />
    <rect x="549" y="590" width="202" height="82" fill="#6a00ff" stroke="none" pointer-events="all" />
    <rect x="549" y="664.5" width="271" height="51.5" fill="#6a00ff" stroke="none" pointer-events="all" />
    <rect x="410" y="204" width="52.97" height="169" fill="#000" stroke="none" transform="rotate(-6,436.48,288.5)" pointer-events="all" />
    <rect x="834" y="540" width="101" height="176" fill="#8f8f8f" stroke="none" pointer-events="all" />
    <text x="885" y="632" fill="#ffffff" font-family="Helvetica" font-size="12px" text-anchor="middle">ESCALIER C</text>
    <path d="M 541.24 522 L 542 664.5" fill="none" stroke="#000000" stroke-width="15" stroke-miterlimit="10" pointer-events="stroke" />
    <rect x="262" y="571" width="273" height="144" fill="#6a00ff" stroke="none" pointer-events="all" />
    <rect x="258.67" y="494.3" width="31.33" height="221" fill="#6a00ff" stroke="none" transform="rotate(-1,274.34,604.8)" pointer-events="all" />
    <rect x="285" y="494" width="108" height="95" fill="#6a00ff" stroke="none" pointer-events="all" />
    <rect x="546" y="729" width="277" height="236" fill="#6a00ff" stroke="none" pointer-events="all" />
    <path d="M 525 722 L 824 723" fill="none" stroke="#000000" stroke-width="15" stroke-miterlimit="10" pointer-events="stroke" />
  </g>
</svg>