<?xml version="1.0" encoding="UTF-8"?>
<!DOCTYPE svg>
<svg xmlns="http://www.w3.org/2000/svg" version="1.1" width="2000px" height="1600px" viewBox="-0.5 -0.5 2000 1600">
  <g>
    <g id="background">
      <rect x="0" y="0" width="2000px" height="1600px" fill-opacity="0" />
    </g>
    <g id="rooms">
      <g id="S-21a-Denis">
        <rect x="222" y="477" width="101" height="35" stroke="none" pointer-events="all" />
        <rect x="222" y="370" width="187" height="130" stroke="none" pointer-events="all" />
        <rect x="286" y="502" width="37" height="17" stroke="none" pointer-events="all" />
      </g>
      <g id="S-21b-MacAlistair">
        <rect x="222" y="524" width="187" height="95" stroke="none" pointer-events="all" />
        <rect x="222" y="610.24" width="196" height="164.77" stroke="none" pointer-events="all" />
        <rect x="407" y="527" width="20" height="92" stroke="none" pointer-events="all" />
        <rect x="286" y="519" width="37" height="17" stroke="none" pointer-events="all" />
      </g>
      <g id="S-21c-Ritchie">
        <rect x="559.05" y="606.3" width="48.32" height="62.99" stroke="none" pointer-events="all" />
        <rect x="432" y="606.3" width="130.99" height="168.7" stroke="none" pointer-events="all" />
        <rect x="555.12" y="738" width="52.88" height="37.01" stroke="none" pointer-events="all" />
        <rect x="426" y="527" width="181" height="92" stroke="none" pointer-events="all" />
      </g>
      <g id="S-22-Ada-Lovelace">
        <rect x="222" y="838" width="330" height="147" stroke="none" pointer-events="all" />
      </g>
      <g id="S-23a-Hedy-Lamarr">
        <rect x="885" y="904" width="59" height="81" stroke="none" pointer-events="all" />
        <rect x="720" y="841" width="166" height="144" stroke="none" pointer-events="all" />
      </g>
      <g id="S-23b-Al-Jazari">
        <rect x="948" y="834" width="103" height="149" stroke="none" pointer-events="all" />
        <rect x="1046.99" y="833.73" width="8.01" height="149.29" stroke="none" transform="rotate(-3,1050.99,908.38)" pointer-events="all" />
      </g>
      <g id="S-24-Roland-Moreno">
        <path d="M 1052 647 L 1111 642 L 1108 589 L 1196 564 L 1127 336 L 1113 337 L 1112 317 L 1034 323 L 1056 643 L 1057 650" fill="none" stroke-width="9" stroke-miterlimit="10" pointer-events="stroke" />
        <rect x="1084.53" y="321.69" width="26.78" height="29" stroke="none" transform="rotate(-4,1097.92,336.19)" pointer-events="all" />
        <rect x="1046" y="318" width="52" height="324" stroke="none" transform="rotate(-5,1072,480)" pointer-events="all" />
        <rect x="1067.71" y="344.04" width="94.04" height="237.93" stroke="none" transform="rotate(-17,1114.73,463)" pointer-events="all" />
      </g>
      <g id="S-25a-Gwen">
        <path d="M 1189 461 L 1234 609 L 1310 582 L 1319 606 L 1397 577 L 1310 337 L 1216 336 L 1252 445 L 1189 466" fill="none" stroke-width="9" stroke-miterlimit="10" pointer-events="stroke" />
        <rect x="1210.09" y="452.33" width="74.04" height="144" stroke="none" transform="rotate(-20,1247.11,524.33)" pointer-events="all" />
        <rect x="1250.21" y="429.52" width="16" height="17.12" stroke="none" transform="rotate(-20,1258.21,438.08)" pointer-events="all" />
        <rect x="1222" y="339" width="71" height="27" stroke="none" pointer-events="all" />
        <rect x="1268.08" y="340.51" width="89.23" height="255.67" stroke="none" transform="rotate(-20,1312.69,468.35)" pointer-events="all" />
      </g>
      <g id="S-25b-Barzey">
        <path d="M 1293 648 L 1295 656 L 1304 673 L 1367 808 L 1462 755 L 1400 585 L 1322 613 L 1331 638 L 1290 653" fill="none" stroke-width="9" stroke-miterlimit="10" pointer-events="stroke" />
        <rect x="1329.04" y="627.65" width="79.23" height="168" stroke="none" transform="rotate(-25,1368.65,711.65)" pointer-events="all" />
        <rect x="1350.78" y="593.45" width="79.23" height="182" stroke="none" transform="rotate(-20,1390.39,684.45)" pointer-events="all" />
      </g>
    </g>
    <g id="floorLines">
      <path d="M 1045 660 L 1153 650" fill="none" stroke-width="16" stroke-miterlimit="10" pointer-events="stroke" />
      <path d="M 222 519 L 286 519" fill="none" stroke-width="15" stroke-miterlimit="10" pointer-events="stroke" />
      <path d="M 425 618 L 425 777" fill="none" stroke-width="15" stroke-miterlimit="10" pointer-events="stroke" />
      <path d="M 218 782 L 359 782" fill="none" stroke-width="15" stroke-miterlimit="10" pointer-events="stroke" />
      <path d="M 391 782 L 507 782" fill="none" stroke-width="15" stroke-miterlimit="10" pointer-events="stroke" />
      <path d="M 615 641 L 615 780" fill="none" stroke-width="15" stroke-miterlimit="10" pointer-events="stroke" />
      <path d="M 552 782 L 642 782" fill="none" stroke-width="15" stroke-miterlimit="10" pointer-events="stroke" />
      <path d="M 222 836 L 350 836" fill="none" stroke-width="5" stroke-miterlimit="10" pointer-events="stroke" />
      <path d="M 381 836 L 554 836 L 554 987" fill="none" stroke-width="5" stroke-miterlimit="10" pointer-events="stroke" />
      <path d="M 945 902 L 888 902 L 888 839 L 752 839" fill="none" stroke-width="5" stroke-miterlimit="10" pointer-events="stroke" />
      <path d="M 718 840 L 718 989" fill="none" stroke-width="5" stroke-miterlimit="10" pointer-events="stroke" />
      <path d="M 1018 832 L 946 832 L 946 989" fill="none" stroke-width="5" stroke-miterlimit="10" pointer-events="stroke" />
      <path d="M 1058 808 L 1065 983" fill="none" stroke-width="15" stroke-miterlimit="10" pointer-events="stroke" />
      <path d="M 1186 720 L 1165 732 L 1247 884" fill="none" stroke-width="15" stroke-miterlimit="10" pointer-events="stroke" />
      <path d="M 1151 583 L 1115 594 L 1118 648" fill="none" stroke-width="5" stroke-miterlimit="10" pointer-events="stroke" />
      <path d="M 1212 566 L 1182 575" fill="none" stroke-width="5" stroke-miterlimit="10" pointer-events="stroke" />
      <path d="M 1314 325 L 1135 324 L 1235 651" fill="none" stroke-width="15" stroke-miterlimit="10" pointer-events="stroke" />
      <path d="M 1010 255 L 1112 248 L 1111 225 L 1278 213 L 1476 761 L 1057 990 L 639 992 L 215 992 L 215 722 L 215 363 L 416 363 L 416 520 L 704 520 L 707 777 L 1053 765 L 1022 319" fill="none" stroke-width="15" stroke-miterlimit="10" pointer-events="stroke" />
    </g>
    <g id="floorRect">
      <rect x="1204.5" y="702.09" width="70.38" height="172.13" fill="#8f8f8f" stroke="none" transform="rotate(-30,1239.69,788.16)" pointer-events="all" />
      <rect x="622" y="640" width="78" height="138" fill="#8f8f8f" stroke="none" pointer-events="all" />
      <text x="661" y="713" fill="rgb(240, 240, 240)" font-family="Helvetica" font-size="12px" text-anchor="middle">ESCALIER...</text>
      <rect x="1119.99" y="222.76" width="170" height="84" fill="#8f8f8f" stroke="none" transform="rotate(-4,1204.99,264.76)" pointer-events="all" />
      <text x="1205" y="268" fill="rgb(240, 240, 240)" font-family="Helvetica" font-size="12px" text-anchor="middle">ESCALIER...</text>
      <rect x="222" y="789" width="86.7" height="45" fill="#a20025" stroke="none" pointer-events="all" />
      <text x="265" y="815" fill="#ffffff" font-family="Helvetica" font-size="12px" text-anchor="middle">AER CORNER</text>
      <rect x="621" y="834" width="31.49" height="125" stroke="none" pointer-events="all" />
      <rect x="890" y="837" width="55" height="63" fill="#8f8f8f" stroke="none" pointer-events="all" />
      <text x="918" y="872" fill="rgb(240, 240, 240)" font-family="Helvetica" font-size="12px" text-anchor="middle">ASCENSEUR</text>
      <text x="1243" y="792" fill="rgb(240, 240, 240)" font-family="Helvetica" font-size="12px" text-anchor="middle">ESCALIER A&#xa;</text>
      <rect x="1195.91" y="738.89" width="178" height="42.72" stroke="none" transform="rotate(62,1284.91,760.25)" pointer-events="all" />
      <rect x="1239.86" y="734.86" width="156.6" height="35" stroke="none" transform="rotate(65,1318.16,752.36)" pointer-events="all" />
      <rect x="323" y="500" width="86" height="24" stroke="none" pointer-events="all" />
      <rect x="607" y="526" width="94" height="115.73" stroke="none" pointer-events="all" />
      <rect x="1011.95" y="251" width="109.97" height="65.42" stroke="none" transform="rotate(-4,1066.93,283.71)" pointer-events="all" />
      <rect x="1278" y="217" width="14.86" height="84" fill="#8f8f8f" stroke="none" transform="rotate(-20,1285.43,259)" pointer-events="all" />
      <rect x="1086.02" y="798.87" width="134.5" height="123.13" fill="#8f8f8f" stroke="none" transform="rotate(-29,1153.27,860.43)" pointer-events="all" />
      <rect x="1041.25" y="921.25" width="79.5" height="32" stroke="none" transform="rotate(90,1081,937.25)" pointer-events="all" />
      <rect x="1052.53" y="871.06" width="42.13" height="21" stroke="none" transform="rotate(65,1073.6,881.56)" pointer-events="all" />
      <rect x="1026.13" y="887.7" width="134" height="12" stroke="none" transform="rotate(60,1093.13,893.7)" pointer-events="all" />
      <rect x="1053.99" y="910.38" width="74" height="30.5" stroke="none" transform="rotate(60,1090.99,925.63)" pointer-events="all" />
      <rect x="1183.44" y="607.05" width="63.47" height="33.72" stroke="none" transform="rotate(72,1215.18,623.91)" pointer-events="all" />
      <rect x="1200.39" y="216.23" width="24.97" height="194.21" stroke="none" transform="rotate(86,1212.88,313.34)" pointer-events="all" />
      <rect x="562.99" y="669.29" width="48.01" height="69.6" stroke="none" pointer-events="all" />
      <text x="1158" y="864" fill="rgb(240, 240, 240)" font-family="Helvetica" font-size="12px" text-anchor="middle">TOILETTES&#xa;</text>
      <rect x="1123.38" y="352.73" width="139.42" height="68" stroke="none" transform="rotate(72,1193.09,386.73)" pointer-events="all" />
      <rect x="1265.28" y="593.69" width="52.26" height="54" stroke="none" transform="rotate(70,1291.41,620.69)" pointer-events="all" />
    </g>
  </g>
</svg>