<?xml version="1.0" encoding="UTF-8"?>
<!DOCTYPE svg>
<svg xmlns="http://www.w3.org/2000/svg" width="1255px" height="764px">
  <defs>
    <pattern patternUnits="userSpaceOnUse" width="11.5" height="11.5" x="0" y="0" patternTransform="rotate(45)" id="mx-pattern-hatch-1-636263-0">
      <line x1="0" y1="0" x2="0" y2="11.5" stroke="#636263" stroke-width="1.5" />
    </pattern>
  </defs>
  <g>
    <g id="background">
      <rect x="0" y="0" width="1255px" height="764px" fill-opacity="0" />
    </g>
    <g id="rooms">
      <g id="S-21a-Denis">
        <rect x="2" y="141" width="209" height="153" />
      </g>
      <g id="S-21b-MacAlistair">
        <rect x="2" y="296" width="209" height="262" />
      </g>
      <g id="S-21c-Ritchie">
        <rect x="214" y="296" width="188.48" height="262" />
      </g>
      <g id="S-22-Ada-Lovelace">
        <rect x="2" y="610" width="341" height="150" />
      </g>
      <g id="S-23a-Hedy-Lamarr">
        <rect x="510" y="615" width="172" height="145" />
        <rect x="680" y="674" width="56" height="86" />
      </g>
      <g id="S-23b-Al-Jazari">
        <rect x="739" y="615" width="104" height="145" />
      </g>
      <g id="S-24-Roland-Moreno">
        <path d="M 839 174 L 839 104 L 920 174 Z" transform="translate(0,139)scale(1,-1)translate(0,-139)" />
        <path d="M 797.17 445.12 L 797.17 132.2 L 881.58 445.12 Z" transform="translate(839.37,0)scale(-1,1)translate(-839.37,0)rotate(15,839.37,288.66)" />
        <path d="M 839 88 L 903 88 L 903 106 L 839 106 L 839 88 Z" />
        <rect x="877.08" y="108.17" width="84.91" height="314" transform="rotate(-15,920.03,265.67)" />
      </g>
      <g id="S-25a-Gwen">
        <rect x="977.94" y="212.35" width="101.38" height="180.72" transform="rotate(345,1028.63,302.71)" />
        <rect x="1042.75" y="92.63" width="85.05" height="281.47" transform="rotate(340,1085.27,233.37)" />
        <path d="M 998.87 376.61 L 1118.87 376.61 L 1118.87 390.61 L 998.87 390.61 L 998.87 376.61 Z" transform="rotate(340,1058.87,383.61)" />
      </g>
      <g id="S-25b-Barzey">
        <path d="M 1043 379 L 1163 379 L 1163 439 L 1043 439 L 1043 379 Z" transform="rotate(340,1103,409)" />
        <path d="M 1048.58 579.9 L 1085.77 376.2 L 1235.53 376.2 L 1198.34 579.9 Z" transform="rotate(-30,1142.05,478.05)" />
      </g>
    </g>
    <g id="floor">
      <path d="M 974.76 642.61 L 1004.77 475.98 L 1103.42 475.98 L 1073.41 642.61 Z" fill="url(#mx-pattern-hatch-1-636263-0)" transform="rotate(330,1039.09,559.3)" />
      <rect x="912.07" y="11" width="142" height="69.99" fill="url(#mx-pattern-hatch-1-636263-0)" transform="rotate(-8,983.07,45.99)" />
      <rect x="406" y="416" width="83.55" height="141.96" fill="url(#mx-pattern-hatch-1-636263-0)" />
      <rect x="1078.22" y="431.47" width="3.55" height="187.51" fill="#f5f5f5" transform="rotate(-20,1080,525.23)" />
      <rect x="684" y="613" width="52" height="59" fill="#706c6e" />
      <rect x="0" y="137" width="2.3" height="625" fill="#f5f5f5" />
      <rect x="0" y="137" width="214" height="4.01" fill="#f5f5f5" />
      <rect x="211" y="137" width="3.55" height="173.23" fill="#f5f5f5" />
      <rect x="0" y="294" width="76" height="2.56" fill="#f5f5f5" />
      <rect x="2" y="561" width="142.33" height="47.24" fill="#a20025" />
      <text x="73" y="588" fill="#ffffff" font-family="Helvetica" font-size="12px" text-anchor="middle">AER</text>
      <rect x="105.96" y="297" width="103.04" height="46.87" fill="#a20025" />
      <text x="157" y="324" fill="#ffffff" font-family="Helvetica" font-size="12px" text-anchor="middle">AER</text>
      <rect x="105" y="294" width="387" height="2.56" fill="#f5f5f5" />
      <rect x="402" y="294" width="3.55" height="267" fill="#f5f5f5" />
      <rect x="342" y="558" width="63" height="2.56" fill="#f5f5f5" />
      <rect x="212" y="558" width="87" height="2.56" fill="#f5f5f5" />
      <rect x="211" y="391" width="3.55" height="168" fill="#f5f5f5" />
      <rect x="0" y="558" width="164" height="2.56" fill="#f5f5f5" />
      <rect x="1" y="608" width="149" height="2.56" fill="#f5f5f5" />
      <rect x="179" y="608" width="167" height="2.56" fill="#f5f5f5" />
      <rect x="343" y="640" width="3.55" height="122" fill="#f5f5f5" />
      <rect x="0" y="760" width="857" height="2.56" fill="#f5f5f5" />
      <rect x="413.94" y="679" width="3.55" height="84" fill="#f5f5f5" />
      <rect x="414" y="611" width="3.55" height="40" fill="#f5f5f5" />
      <rect x="489" y="557" width="350" height="2.56" fill="#f5f5f5" />
      <rect x="489" y="294" width="3.55" height="265" fill="#f5f5f5" />
      <rect x="403" y="413" width="87" height="2.56" fill="#f5f5f5" />
      <rect x="506.94" y="612" width="3.55" height="149.94" fill="#f5f5f5" />
      <rect x="531" y="613" width="153" height="2.56" fill="#f5f5f5" />
      <rect x="681" y="613" width="3.55" height="61" fill="#f5f5f5" />
      <rect x="681" y="672" width="56" height="2.56" fill="#f5f5f5" />
      <rect x="736" y="613" width="3.55" height="149" fill="#f5f5f5" />
      <rect x="843" y="613" width="3.55" height="149" fill="#f5f5f5" />
      <rect x="825.89" y="648.52" width="448.18" height="2.56" fill="#f5f5f5" transform="rotate(-30,1049.98,649.8)" />
      <rect x="903" y="35" width="3.55" height="11" fill="#f5f5f5" />
      <rect x="993" y="500" width="3.55" height="170.64" fill="#f5f5f5" transform="rotate(-20,994.77,585.32)" />
      <rect x="1032" y="457" width="24.33" height="2.56" fill="#f5f5f5" transform="rotate(-30,1044.16,458.28)" />
      <rect x="962" y="498" width="24.33" height="2.56" fill="#f5f5f5" transform="rotate(-30,974.16,499.28)" />
      <rect x="762" y="613" width="83.67" height="2.56" fill="#f5f5f5" />
      <rect x="954.5" y="216.98" width="78.34" height="2.56" fill="#f5f5f5" transform="rotate(-15,993.67,218.26)" />
      <rect x="903" y="14" width="3.55" height="22" fill="#f5f5f5" />
      <rect x="836" y="35" width="70" height="2.56" fill="#f5f5f5" />
      <rect x="857.75" y="63.25" width="3.55" height="46.5" fill="#f5f5f5" transform="rotate(90,859.53,86.5)" />
      <rect x="916.99" y="82.83" width="160" height="2.56" fill="#f5f5f5" transform="rotate(-5,996.99,84.11)" />
      <rect x="947" y="44" width="73.82" height="2.56" fill="#f5f5f5" transform="rotate(-5,983.91,45.28)" />
      <rect x="902" y="6" width="146" height="2.56" fill="#f5f5f5" transform="rotate(-5,975,7.28)" />
      <rect x="903" y="71" width="3.55" height="32" fill="#f5f5f5" />
      <rect x="1010.94" y="111.82" width="3.55" height="99.94" fill="#f5f5f5" transform="rotate(-20,1012.71,161.79)" />
      <rect x="1028" y="521.83" width="3.55" height="77" fill="#f5f5f5" transform="rotate(-20,1029.78,560.33)" />
      <rect x="1032" y="374" width="147.21" height="2.56" fill="#f5f5f5" transform="rotate(340,1105.61,375.28)" />
      <rect x="1143.41" y="-17.11" width="3.55" height="574.01" fill="#f5f5f5" transform="rotate(-20,1145.19,269.89)" />
      <rect x="993" y="100" width="87.89" height="2.56" fill="#f5f5f5" transform="rotate(340,1036.95,101.28)" />
      <rect x="909.75" y="93.75" width="3.55" height="17" fill="#f5f5f5" transform="rotate(90,911.53,102.25)" />
      <rect x="834.97" y="434.74" width="122.07" height="2.56" fill="#f5f5f5" transform="rotate(-15,896.01,436.02)" />
      <rect x="836" y="37" width="3.55" height="522" fill="#f5f5f5" />
      <rect x="959.22" y="84.36" width="3.55" height="333.61" fill="#f5f5f5" transform="rotate(-15,960.99,251.17)" />
      <rect x="449" y="451" width="3.55" height="64" fill="#f5f5f5" />
      <rect x="843" y="603.78" width="56" height="2.56" fill="#f5f5f5" transform="rotate(-21,871,605.06)" />
      <rect x="927.73" y="570" width="60.19" height="2.56" fill="#f5f5f5" transform="rotate(-21,957.82,571.28)" />
      <svg x="899.53" y="627.5" xmlns="http://www.w3.org/2000/svg" width="620" height="572">
        <circle cx="130.95011" cy="46.58577" r="46.54521" fill="#ffffff" transform="scale(0.09,0.09)" />
        <path d="M124.50539,388.15534V549.98933C124.26193,579.39154,80.494976,579.39154,80.108304,549.98933V388.15534H22.821751L84.404788,171.89962H74.379644L38.57554,295.0651C29.524278,322.30474,-7.3109962,311.27714,1.3392857,282.17574L41.43986,148.98509C46.051436,133.68965,65.32836,106.68061,98.726432,106.02037H128.80188H163.17384C195.6095,106.68061,214.96663,133.91881,220.46041,148.98509L260.56101,282.17574C268.69571,311.1339,232.15259,323.02082,223.32473,295.0651L187.52063,171.89962H176.06331L239.07855,388.15534H180.3598V549.98933C180.8181,579.39154,137.22302,579.2483,137.39487,549.98933V388.15534H124.50539z" fill="#ffffff" transform="scale(0.09,0.09)" />
        <circle cx="511.90545" cy="46.58577" r="46.54521" fill="#ffffff" transform="scale(0.09,0.09)" />
        <path d="M462.49589,106.02037C426.70613,106.02037,403.77713,137.00793,403.77713,167.60313V310.81886C403.44773,338.80318,443.74313,338.80318,443.87777,310.81886V179.06038H453.90289V542.82853C453.28133,580.80938,506.95025,579.72094,506.89297,542.82853V330.86906H515.48597V542.82853C516.18773,579.72094,570.13733,580.80938,569.90817,542.82853V179.06038H579.93333V310.81886C579.46073,339.01802,619.54701,339.01802,620.03389,310.81886V167.60313C619.46109,137.00793,595.67281,106.56889,559.88305,106.02037H462.49589z" fill="#ffffff" transform="scale(0.09,0.09)" />
        <rect x="297.79132" y="5.7684445" width="52.996765" height="562.84003" fill="#ffffff" transform="scale(0.09,0.09)" />
      </svg>
      <svg x="689.5" y="620.07" height="800px" width="800px" xmlns="http://www.w3.org/2000/svg">
        <g>
          <path d="M88.942,484.606h306.723V128.322H88.942V484.606z M365.665,454.606H257.303V158.322h108.361V454.606z M118.942,158.322h108.361v296.285H118.942V158.322z" fill="#ffffff" transform="scale(0.09,0.09)" />
          <polygon points="228.41,21.213 207.197,0 157.803,49.393 108.41,0 87.197,21.213 157.803,91.82" fill="#ffffff" transform="scale(0.09,0.09)" />
          <polygon points="326.803,45.82 376.197,95.213 397.41,74 326.803,3.393 256.197,74 277.41,95.213" fill="#ffffff" transform="scale(0.09,0.09)" />
        </g>
      </svg>
      <svg x="437.5" y="660.5" height="44" width="44" xmlns="http://www.w3.org/2000/svg">
        <path d="M26,28.36H6v-0.72h20V28.36z M19,26.36h-6c-2.404,0-4.36-1.956-4.36-4.36v-8c0-0.199,0.161-0.36,0.36-0.36h14c0.199,0,0.36,0.161,0.36,0.36v1.64H25c1.302,0,2.36,1.059,2.36,2.36v2c0,1.302-1.059,2.36-2.36,2.36h-1.654C23.162,24.597,21.283,26.36,19,26.36z M9.36,14.36V22c0,2.007,1.633,3.64,3.64,3.64h6c2.007,0,3.64-1.633,3.64-3.64v-7.64C22.64,14.36,9.36,14.36,9.36,14.36z M23.36,21.64H25c0.904,0,1.64-0.735,1.64-1.64v-2c0-0.904-0.735-1.64-1.64-1.64h-1.64V21.64zM20.36,12h-0.72v-1.283c0-0.525,0.124-1.051,0.358-1.52c0.375-0.75,0.375-1.645,0-2.395c-0.234-0.469-0.358-0.995-0.358-1.52V5h0.721v0.283c0,0.414,0.098,0.829,0.282,1.198c0.476,0.952,0.476,2.087,0,3.039c-0.185,0.369-0.282,0.784-0.282,1.198L20.36,12L20.36,12z M12.36,12h-0.72v-1.283c0-0.525,0.124-1.05,0.359-1.52c0.375-0.75,0.375-1.645,0-2.395c-0.235-0.47-0.359-0.995-0.359-1.52V5h0.72v0.283c0,0.414,0.098,0.828,0.283,1.198c0.476,0.952,0.476,2.087,0,3.039c-0.185,0.37-0.283,0.784-0.283,1.198V12z M16.36,11h-0.72V9.717c0-0.525,0.124-1.05,0.359-1.52c0.375-0.75,0.375-1.645,0-2.395c-0.235-0.47-0.359-0.995-0.359-1.52V4h0.72v0.283c0,0.414,0.098,0.828,0.283,1.198c0.477,0.952,0.477,2.087,0,3.039c-0.185,0.37-0.283,0.784-0.283,1.198V11z" fill="#FFFFFF" transform="scale(1.37,1.37)" />
      </svg>
      <svg x="356.5" y="660.5" height="44" width="44" xmlns="http://www.w3.org/2000/svg">
        <path d="M26,28.36H6v-0.72h20V28.36z M19,26.36h-6c-2.404,0-4.36-1.956-4.36-4.36v-8c0-0.199,0.161-0.36,0.36-0.36h14c0.199,0,0.36,0.161,0.36,0.36v1.64H25c1.302,0,2.36,1.059,2.36,2.36v2c0,1.302-1.059,2.36-2.36,2.36h-1.654C23.162,24.597,21.283,26.36,19,26.36z M9.36,14.36V22c0,2.007,1.633,3.64,3.64,3.64h6c2.007,0,3.64-1.633,3.64-3.64v-7.64C22.64,14.36,9.36,14.36,9.36,14.36z M23.36,21.64H25c0.904,0,1.64-0.735,1.64-1.64v-2c0-0.904-0.735-1.64-1.64-1.64h-1.64V21.64zM20.36,12h-0.72v-1.283c0-0.525,0.124-1.051,0.358-1.52c0.375-0.75,0.375-1.645,0-2.395c-0.234-0.469-0.358-0.995-0.358-1.52V5h0.721v0.283c0,0.414,0.098,0.829,0.282,1.198c0.476,0.952,0.476,2.087,0,3.039c-0.185,0.369-0.282,0.784-0.282,1.198L20.36,12L20.36,12z M12.36,12h-0.72v-1.283c0-0.525,0.124-1.05,0.359-1.52c0.375-0.75,0.375-1.645,0-2.395c-0.235-0.47-0.359-0.995-0.359-1.52V5h0.72v0.283c0,0.414,0.098,0.828,0.283,1.198c0.476,0.952,0.476,2.087,0,3.039c-0.185,0.37-0.283,0.784-0.283,1.198V12z M16.36,11h-0.72V9.717c0-0.525,0.124-1.05,0.359-1.52c0.375-0.75,0.375-1.645,0-2.395c-0.235-0.47-0.359-0.995-0.359-1.52V4h0.72v0.283c0,0.414,0.098,0.828,0.283,1.198c0.477,0.952,0.477,2.087,0,3.039c-0.185,0.37-0.283,0.784-0.283,1.198V11z" fill="#FFFFFF" transform="scale(1.37,1.37)" />
      </svg>
    </g>
  </g>
</svg>