<?xml version="1.0" encoding="utf-8"?>
<!-- Generator: Adobe Illustrator 27.7.0, SVG Export Plug-In . SVG Version: 6.00 Build 0)  -->
<svg version="1.1" id="Calque_1" xmlns="http://www.w3.org/2000/svg" xmlns:xlink="http://www.w3.org/1999/xlink" x="0px" y="0px"
	 viewBox="0 0 595.28 221.99" style="enable-background:new 0 0 595.28 221.99;" xml:space="preserve">
<style type="text/css">
	.st0{fill:#FFFFFF;}
</style>
<path class="st0" d="M53.39,101.67V57.35c0-5.12,4.94-8.14,14.42-8.11l10.61,0.02v4.08l-2.08-0.01c-9.28-0.03-11.18,1.54-11.18,8.13
	v39.55c0,5.39-5.33,9.46-12.53,9.98c7.2,0.53,12.53,4.6,12.53,9.99v39.55c0,6.58,1.71,8.14,11.18,8.12l2.08-0.01v4.07l-10.61,0.03
	c-9.49,0.04-14.42-2.97-14.42-8.11v-44.3c0-4.21-2.67-7.1-7.22-8.54c-1.51-0.54-2.84-0.66-4.37-0.8
	C48.64,110.74,53.39,107.06,53.39,101.67"/>
<path class="st0" d="M553.47,110.99L553.47,110.99c-1.53,0.14-2.86,0.26-4.36,0.8c-4.55,1.44-7.22,4.33-7.22,8.54v44.3
	c0,5.14-4.94,8.15-14.42,8.11l-10.61-0.03v-4.07l2.08,0.01c9.47,0.02,11.18-1.54,11.18-8.12v-39.55c0-5.39,5.33-9.46,12.53-9.99
	c-7.2-0.52-12.53-4.6-12.53-9.98V61.47c0-6.59-1.9-8.16-11.18-8.13l-2.08,0.01v-4.08l10.61-0.02c9.49-0.03,14.42,2.98,14.42,8.11
	v44.32C541.89,107.06,546.64,110.74,553.47,110.99"/>
<g>
	<path class="st0" d="M150.17,90.35h-37.68c-1.68,0-3.11,0.64-4.31,1.91c-1.2,1.28-1.8,2.78-1.8,4.53s0.56,3.24,1.69,4.48
		c1.13,1.24,2.64,1.86,4.53,1.86h37.57v15.29h-37.68c-1.68,0-3.11,0.64-4.31,1.91c-1.2,1.28-1.8,2.86-1.8,4.75
		c0,1.82,0.6,3.37,1.8,4.64c1.2,1.27,2.68,1.91,4.43,1.91h37.57v15.29h-35.82c-4.3,0-7.92-0.61-10.87-1.86
		c-2.95-1.24-5.35-2.89-7.21-4.97c-1.86-2.07-3.21-4.42-4.04-7.04s-1.25-5.31-1.25-8.09c0-1.31,0.12-2.71,0.38-4.2
		c0.25-1.49,0.69-2.89,1.31-4.2c0.62-1.31,1.42-2.47,2.4-3.49c0.98-1.02,2.2-1.79,3.66-2.29c-2.91-1.39-4.91-3.44-6-6.17
		c-1.09-2.74-1.64-5.95-1.64-9.67c0-6.34,2-11.23,6.01-14.69c4-3.46,9.75-5.18,17.26-5.18h35.82V90.35z"/>
	<path class="st0" d="M159.24,124.76c0-7.07,2.06-12.43,6.17-16.11c4.11-3.67,9.78-5.51,16.98-5.51h14.42
		c1.75,0,3.22-0.62,4.42-1.86c1.2-1.24,1.8-2.73,1.8-4.48s-0.6-3.25-1.8-4.53c-1.2-1.27-2.64-1.91-4.31-1.91h-37.68V75.07h35.82
		c4.08,0,7.59,0.58,10.54,1.74c2.95,1.16,5.37,2.74,7.26,4.7c1.89,1.96,3.28,4.26,4.15,6.88c0.88,2.62,1.31,5.39,1.31,8.3
		c0,2.69-0.42,5.33-1.26,7.92c-0.84,2.59-2.18,4.9-4.04,6.93c-1.86,2.04-4.26,3.7-7.21,4.97c-2.95,1.27-6.54,1.91-10.76,1.91h-14.74
		c-1.68,0-3.06,0.66-4.15,1.96c-1.09,1.32-1.64,2.84-1.64,4.59v21.95h-15.29V124.76z"/>
	<path class="st0" d="M226.4,146.92V75.07h15.29v71.86H226.4z"/>
	<path class="st0" d="M282.99,90.35v56.57H267.7V90.35h-16.93V75.07h48.16v15.29H282.99z"/>
	<path class="st0" d="M366.2,90.35h-37.68c-1.68,0-3.11,0.64-4.31,1.91c-1.2,1.28-1.8,2.78-1.8,4.53s0.56,3.24,1.69,4.48
		c1.13,1.24,2.64,1.86,4.53,1.86h37.57v15.29h-37.68c-1.68,0-3.11,0.64-4.31,1.91c-1.2,1.28-1.8,2.86-1.8,4.75
		c0,1.82,0.6,3.37,1.8,4.64c1.2,1.27,2.68,1.91,4.43,1.91h37.57v15.29h-35.82c-4.3,0-7.92-0.61-10.87-1.86
		c-2.95-1.24-5.35-2.89-7.21-4.97c-1.86-2.07-3.21-4.42-4.04-7.04c-0.84-2.62-1.25-5.31-1.25-8.09c0-1.31,0.12-2.71,0.38-4.2
		c0.25-1.49,0.69-2.89,1.31-4.2c0.62-1.31,1.42-2.47,2.4-3.49c0.98-1.02,2.2-1.79,3.66-2.29c-2.91-1.39-4.91-3.44-6-6.17
		c-1.09-2.74-1.64-5.95-1.64-9.67c0-6.34,2-11.23,6.01-14.69c4-3.46,9.75-5.18,17.26-5.18h35.82V90.35z"/>
	<path class="st0" d="M432.97,146.92h-24.93c-21.85,0-32.76-11.94-32.76-35.82v-0.33c0.22-23.81,11.18-35.71,32.87-35.71h24.93
		v15.29h-25.99c-4.88,0-8.52,1.65-10.92,4.97c-2.4,3.32-3.6,8.61-3.6,15.89v0.87c0,13.04,4.81,19.55,14.42,19.55h25.99V146.92z"/>
	<path class="st0" d="M486.47,146.92v-28.5h-28.5v28.5h-15.29V75.07h15.29v28.07h28.5V75.07h15.29v71.86H486.47z"/>
</g>
</svg>
