<?xml version="1.0" encoding="UTF-8"?>
<!DOCTYPE svg>
<svg xmlns="http://www.w3.org/2000/svg" version="1.1" width="493px" height="432px" viewBox="0 0 750 432">
  <defs>
    <pattern patternUnits="userSpaceOnUse" width="11.5" height="11.5" x="0" y="0" patternTransform="rotate(45)" id="mx-pattern-hatch-1-636263-0">
      <line x1="0" y1="0" x2="0" y2="11.5" stroke="#636263" stroke-width="1.5"/>
    </pattern>
  </defs>
  <g>
    <g id="background">
      <rect x="0" y="0" width="750px" height="432px" fill-opacity="0"/>
    </g>
    <g id="rooms">
      <g id="S-33a-Deep-Blue">
        <path d="M 220 267 L 414 267 L 414 427 L 220 427 L 220 267 Z"/>
      </g>
      <g id="S-33b-Blue-Brain">
        <path d="M 4 267 L 220 267 L 220 427 L 4 427 L 4 267 Z"/>
      </g>
      <g id="S-33a-Deep-Blue-Text">
        <text x="322" y="348" font-family="Helvetica" font-size="16px" text-anchor="middle">Deep</text>
        <text x="209" y="348" font-family="Helvetica" font-size="16px" text-anchor="middle">Blue</text>
      </g>
      <g id="S-33b-Blue-Brain-Text">
        <text x="209" y="348" font-family="Helvetica" font-size="16px" text-anchor="middle">Blue</text>
        <text x="76" y="348" font-family="Helvetica" font-size="16px" text-anchor="middle">Brain</text>
      </g>
    </g>
    <g id="floor">
      <rect x="406" y="123" width="83" height="140" fill="url(#mx-pattern-hatch-1-636263-0)"/>
      <rect x="0" y="0" width="4.01" height="431" fill="#f5f5f5"/>
      <rect x="0" y="0" width="102" height="4.01" fill="#f5f5f5"/>
      <rect x="401.54" y="119.11" width="4.01" height="100.89" fill="#f5f5f5"/>
      <rect x="211" y="119.11" width="4.01" height="99" fill="#f5f5f5"/>
      <rect x="0" y="263" width="165" height="4.01" fill="#f5f5f5"/>
      <rect x="0" y="426.99" width="418" height="4.01" fill="#f5f5f5"/>
      <rect x="414" y="263" width="4.01" height="168" fill="#f5f5f5"/>
      <rect x="194" y="263" width="298" height="4.01" fill="#f5f5f5"/>
      <rect x="487.99" y="119.11" width="4.01" height="147.89" fill="#f5f5f5"/>
      <rect x="211" y="119.11" width="281" height="4.01" fill="#f5f5f5"/>
      <rect x="98" y="152.98" width="117" height="4.01" fill="#f5f5f5"/>
      <rect x="98" y="0" width="4.01" height="157" fill="#f5f5f5"/>
      <rect x="354" y="212.99" width="51.55" height="4.01" fill="#f5f5f5"/>
      <rect x="354" y="177" width="51.55" height="4.01" fill="#f5f5f5"/>
      <rect x="354" y="177" width="4.01" height="40" fill="#f5f5f5"/>
      <rect x="0" y="100" width="66" height="4.01" fill="#f5f5f5"/>
      <rect x="449" y="151.44" width="4.01" height="64" fill="#f5f5f5"/>
      <svg x="21.5" y="26.5" xmlns="http://www.w3.org/2000/svg" width="620" height="572">
        <circle cx="130.95011" cy="46.58577" r="46.54521" fill="#ffffff" transform="scale(0.09,0.09)"/>
        <path d="M124.50539,388.15534V549.98933C124.26193,579.39154,80.494976,579.39154,80.108304,549.98933V388.15534H22.821751L84.404788,171.89962H74.379644L38.57554,295.0651C29.524278,322.30474,-7.3109962,311.27714,1.3392857,282.17574L41.43986,148.98509C46.051436,133.68965,65.32836,106.68061,98.726432,106.02037H128.80188H163.17384C195.6095,106.68061,214.96663,133.91881,220.46041,148.98509L260.56101,282.17574C268.69571,311.1339,232.15259,323.02082,223.32473,295.0651L187.52063,171.89962H176.06331L239.07855,388.15534H180.3598V549.98933C180.8181,579.39154,137.22302,579.2483,137.39487,549.98933V388.15534H124.50539z" fill="#ffffff" transform="scale(0.09,0.09)"/>
        <circle cx="511.90545" cy="46.58577" r="46.54521" fill="#ffffff" transform="scale(0.09,0.09)"/>
        <path d="M462.49589,106.02037C426.70613,106.02037,403.77713,137.00793,403.77713,167.60313V310.81886C403.44773,338.80318,443.74313,338.80318,443.87777,310.81886V179.06038H453.90289V542.82853C453.28133,580.80938,506.95025,579.72094,506.89297,542.82853V330.86906H515.48597V542.82853C516.18773,579.72094,570.13733,580.80938,569.90817,542.82853V179.06038H579.93333V310.81886C579.46073,339.01802,619.54701,339.01802,620.03389,310.81886V167.60313C619.46109,137.00793,595.67281,106.56889,559.88305,106.02037H462.49589z" fill="#ffffff" transform="scale(0.09,0.09)"/>
        <rect x="297.79132" y="5.7684445" width="52.996765" height="562.84003" fill="#ffffff" transform="scale(0.09,0.09)"/>
      </svg>
    </g>
  </g>
</svg>