<?xml version="1.0" encoding="UTF-8"?>
<!DOCTYPE svg>
<svg xmlns="http://www.w3.org/2000/svg" version="1.1" width="1255px" height="764px" viewBox="-0.5 -0.5 1255 764">
  <defs>
    <pattern patternUnits="userSpaceOnUse" width="11.5" height="11.5" x="0" y="0" patternTransform="rotate(45)" id="mx-pattern-hatch-1-636263-0">
      <line x1="0" y1="0" x2="0" y2="11.5" stroke="#636263" stroke-width="1.5" />
    </pattern>
  </defs>
  <g>
    <g id="background">
      <rect x="0" y="0" width="1255px" height="764px" fill-opacity="0" />
    </g>
    <g id="rooms">
      <g id="S-11-Microtech">
        <rect x="2" y="141.48" width="209" height="153" />
      </g>
      <g id="S-12-Pandora">
        <rect x="2" y="610.48" width="404" height="150" />
      </g>
      <g id="S-14-Poudlard">
        <path d="M 1065 375 L 1072.02 315 L 1171 315 L 1163.98 375 Z" transform="translate(0,345)scale(1,-1)translate(0,-345)rotate(15,1118,345)" />
        <rect x="924.47" y="173.83" width="266.55" height="144.72" transform="rotate(70,1057.74,246.19)" />
        <path d="M 904.87 178.47 L 1173.31 178.47 L 1173.31 338.46 L 904.87 338.46 L 904.87 178.47 Z" transform="rotate(75,1039.09,258.47)" />
      </g>
      <g id="B-11-Gallifrey">
        <rect x="409" y="611" width="167" height="149.48" />
      </g>
      <g id="B-12-Le-Continental">
        <rect x="577" y="610.94" width="104.94" height="149.48" />
      </g>
      <g id="B-13-Kaer-Morhen">
        <rect x="684.55" y="674.48" width="55" height="86" />
        <rect x="739" y="615.48" width="104" height="145" />
      </g>
      <g id="B-14-La-Matrice">
        <path d="M 1081.48 577.63 L 1096.79 499.45 L 1245.79 499.45 L 1230.48 577.63 Z" transform="rotate(-30,1163.63,538.54)" />
      </g>
      <g id="B-15-Krikkit">
        <path d="M 1088.06 492.26 L 1106.69 384.7 L 1211.87 384.7 L 1193.24 492.26 Z" transform="rotate(-30,1149.96,438.48)" />
        <path d="M 1088.06 442.71 L 1088.06 372.71 L 1188.06 442.71 Z" transform="translate(0,407.71)scale(1,-1)translate(0,-407.71)rotate(16,1138.06,407.71)" />
        <path d="M 1085.07 384.32 L 1100.31 384.32 L 1100.31 441.83 L 1085.07 441.83 L 1085.07 384.32 Z" transform="rotate(-20,1092.69,413.08)" />
      </g>
      <g id="O-11-Kanojedo">
        <rect x="214" y="296.48" width="188.48" height="117.52" />
      </g>
      <g id="O-12-Arrakis">
        <rect x="2" y="375" width="97" height="183.48" />
      </g>
    </g>
    <g id="floor">
      <rect x="1087.29" y="483.4" width="3.55" height="134.46" fill="#f5f5f5" transform="rotate(-20,1089.06,550.63)" />
      <rect x="684" y="613.48" width="52" height="59" fill="#706c6e" />
      <rect x="0" y="137.48" width="2.3" height="625" fill="#f5f5f5" />
      <rect x="0" y="137.48" width="214" height="4.01" fill="#f5f5f5" />
      <rect x="211" y="137.48" width="3.55" height="158.52" fill="#f5f5f5" />
      <rect x="0" y="294.48" width="167" height="2.56" fill="#f5f5f5" />
      <rect x="199" y="294.48" width="293" height="2.56" fill="#f5f5f5" />
      <rect x="402" y="294.48" width="3.55" height="265.52" fill="#f5f5f5" />
      <rect x="342" y="558.48" width="78" height="2.56" fill="#f5f5f5" />
      <rect x="212" y="522.48" width="133" height="2.56" fill="#f5f5f5" />
      <rect x="211" y="414" width="3.55" height="145.48" fill="#f5f5f5" />
      <rect x="0" y="558.48" width="100" height="2.56" fill="#f5f5f5" />
      <rect x="1" y="608.48" width="79" height="2.56" fill="#f5f5f5" />
      <rect x="115" y="608.48" width="160" height="2.56" fill="#f5f5f5" />
      <rect x="405.45" y="609" width="3.55" height="153.48" fill="#f5f5f5" />
      <rect x="0" y="760.48" width="857" height="2.56" fill="#f5f5f5" />
      <rect x="478" y="557.48" width="361" height="2.56" fill="#f5f5f5" />
      <rect x="489" y="294.48" width="3.55" height="265" fill="#f5f5f5" />
      <rect x="403" y="413.48" width="87" height="2.56" fill="#f5f5f5" />
      <rect x="622" y="608.48" width="62" height="2.56" fill="#f5f5f5" />
      <rect x="681" y="672.48" width="56" height="2.56" fill="#f5f5f5" />
      <rect x="736" y="613.48" width="3.55" height="61.52" fill="#f5f5f5" />
      <rect x="843" y="613.48" width="3.55" height="149" fill="#f5f5f5" />
      <rect x="825.89" y="649" width="448.18" height="2.56" fill="#f5f5f5" transform="rotate(-30,1049.98,650.28)" />
      <rect x="836" y="102.48" width="3.55" height="457" fill="#f5f5f5" />
      <rect x="834.97" y="435.22" width="122.07" height="2.56" fill="#f5f5f5" transform="rotate(-15,896.01,436.5)" />
      <rect x="892.45" y="0" width="3.55" height="105.04" fill="#f5f5f5" />
      <rect x="958.86" y="145.73" width="3.55" height="268.99" fill="#f5f5f5" transform="rotate(-15,960.64,280.22)" />
      <rect x="836" y="102.48" width="60" height="2.56" fill="#f5f5f5" />
      <rect x="993" y="500.48" width="3.55" height="170.64" fill="#f5f5f5" transform="rotate(-20,994.77,585.8)" />
      <rect x="956.57" y="478.2" width="105.48" height="2.56" fill="#f5f5f5" transform="rotate(-30,1009.31,479.48)" />
      <rect x="762" y="613.48" width="83.67" height="2.56" fill="#f5f5f5" />
      <rect x="892.45" y="0" width="156.55" height="2.56" fill="#f5f5f5" />
      <rect x="1143.67" y="-15.12" width="3.55" height="572.45" fill="#f5f5f5" transform="rotate(-20,1145.44,271.11)" />
      <rect x="211" y="413.42" width="139" height="2.56" fill="#f5f5f5" />
      <rect x="211" y="337.77" width="3.55" height="34.94" fill="#f5f5f5" />
      <rect x="314" y="608.42" width="95" height="2.56" fill="#f5f5f5" />
      <rect x="342" y="522.48" width="3" height="38" fill="#f5f5f5" />
      <rect x="681" y="608.48" width="3.55" height="154.52" fill="#f5f5f5" />
      <rect x="575" y="610" width="3.55" height="152.48" fill="#f5f5f5" />
      <rect x="569" y="608.42" width="17.94" height="2.56" fill="#f5f5f5" />
      <rect x="407" y="608.36" width="132.88" height="2.56" fill="#f5f5f5" />
      <rect x="346.94" y="414.42" width="3" height="56.58" fill="#f5f5f5" />
      <rect x="266" y="470.42" width="83.94" height="2.56" fill="#f5f5f5" />
      <rect x="1113.83" y="489.56" width="110.08" height="2.56" fill="#f5f5f5" transform="rotate(-30,1168.87,490.84)" />
      <rect x="1104.76" y="426.78" width="3.55" height="95.04" fill="#f5f5f5" transform="rotate(-20,1106.53,474.3)" />
      <rect x="950.95" y="116.75" width="134.07" height="2.56" fill="#f5f5f5" transform="rotate(-21,1017.98,118.03)" />
      <rect x="930.74" y="121.61" width="41.55" height="2.56" fill="#f5f5f5" transform="rotate(75,951.51,122.89)" />
      <rect x="950" y="47" width="67" height="2.56" fill="#f5f5f5" />
      <rect x="894.45" y="102.06" width="3.55" height="11.33" fill="#f5f5f5" transform="rotate(-40,896.22,107.72)" />
      <rect x="897" y="3" width="154" height="91" fill="url(#mx-pattern-hatch-1-636263-0)" />
      <rect x="214.55" y="415.76" width="131.45" height="106.24" fill="url(#mx-pattern-hatch-1-636263-0)" />
      <rect x="405.45" y="416.04" width="83.55" height="141.96" fill="url(#mx-pattern-hatch-1-636263-0)" />
      <rect x="-0.06" y="372.42" width="99.06" height="2.56" fill="#f5f5f5" />
      <rect x="2.3" y="297.04" width="52" height="59" fill="#706c6e" />
      <rect x="-0.12" y="355.36" width="99.12" height="2.56" fill="#f5f5f5" />
      <rect x="88.5" y="363.78" width="19" height="2.56" fill="#f5f5f5" transform="rotate(90,98,365.06)" />
      <rect x="1039" y="521.82" width="3.55" height="77" fill="#f5f5f5" transform="rotate(-20,1040.77,560.32)" />
      <rect x="444.73" y="461.04" width="3.55" height="64" fill="#f5f5f5" />
      <rect x="990.84" y="383.73" width="189.66" height="2.56" fill="#f5f5f5" transform="rotate(-15,1085.67,385.01)" />
      <rect x="843.12" y="605.22" width="56" height="2.56" fill="#f5f5f5" transform="rotate(-21,871.12,606.5)" />
      <rect x="927.85" y="571.44" width="60.19" height="2.56" fill="#f5f5f5" transform="rotate(-21,957.95,572.72)" />
      <path d="M 974.76 642.61 L 1004.77 475.98 L 1103.42 475.98 L 1073.41 642.61 Z" fill="url(#mx-pattern-hatch-1-636263-0)" transform="rotate(330,1039.09,559.3)" />
      <path d="M 909.87 183.47 L 909.87 333.46 L 909.87 333.46 L 1168.31 333.46 L 1168.31 183.47 L 909.87 183.47" fill="none" transform="rotate(75,1039.09,258.47)" />
      <path d="M 904.87 178.47 L 1173.31 178.47 L 1173.31 338.46 L 904.87 338.46 L 904.87 178.47 Z" fill="none" transform="rotate(75,1039.09,258.47)" />
      <path d="M 1085.07 384.32 L 1085.07 441.83 L 1085.07 441.83 L 1100.31 441.83 L 1100.31 384.32 L 1085.07 384.32" fill="none" transform="rotate(-20,1092.69,413.08)" />
      <path d="M 1085.07 384.32 L 1100.31 384.32 L 1100.31 441.83 L 1085.07 441.83 L 1085.07 384.32 Z" fill="none" transform="rotate(-20,1092.69,413.08)" />
      <svg x="899.53" y="627.5" xmlns="http://www.w3.org/2000/svg" width="620" height="572">
        <circle cx="130.95011" cy="46.58577" r="46.54521" fill="#ffffff" transform="scale(0.09,0.09)" />
        <path d="M124.50539,388.15534V549.98933C124.26193,579.39154,80.494976,579.39154,80.108304,549.98933V388.15534H22.821751L84.404788,171.89962H74.379644L38.57554,295.0651C29.524278,322.30474,-7.3109962,311.27714,1.3392857,282.17574L41.43986,148.98509C46.051436,133.68965,65.32836,106.68061,98.726432,106.02037H128.80188H163.17384C195.6095,106.68061,214.96663,133.91881,220.46041,148.98509L260.56101,282.17574C268.69571,311.1339,232.15259,323.02082,223.32473,295.0651L187.52063,171.89962H176.06331L239.07855,388.15534H180.3598V549.98933C180.8181,579.39154,137.22302,579.2483,137.39487,549.98933V388.15534H124.50539z" fill="#ffffff" transform="scale(0.09,0.09)" />
        <circle cx="511.90545" cy="46.58577" r="46.54521" fill="#ffffff" transform="scale(0.09,0.09)" />
        <path d="M462.49589,106.02037C426.70613,106.02037,403.77713,137.00793,403.77713,167.60313V310.81886C403.44773,338.80318,443.74313,338.80318,443.87777,310.81886V179.06038H453.90289V542.82853C453.28133,580.80938,506.95025,579.72094,506.89297,542.82853V330.86906H515.48597V542.82853C516.18773,579.72094,570.13733,580.80938,569.90817,542.82853V179.06038H579.93333V310.81886C579.46073,339.01802,619.54701,339.01802,620.03389,310.81886V167.60313C619.46109,137.00793,595.67281,106.56889,559.88305,106.02037H462.49589z" fill="#ffffff" transform="scale(0.09,0.09)" />
        <rect x="297.79132" y="5.7684445" width="52.996765" height="562.84003" fill="#ffffff" transform="scale(0.09,0.09)" />
      </svg>
      <svg x="7.5" y="303.04" height="800px" width="800px" xmlns="http://www.w3.org/2000/svg">
        <g>
          <path d="M88.942,484.606h306.723V128.322H88.942V484.606z M365.665,454.606H257.303V158.322h108.361V454.606z M118.942,158.322h108.361v296.285H118.942V158.322z" fill="#ffffff" transform="scale(0.09,0.09)" />
          <polygon points="228.41,21.213 207.197,0 157.803,49.393 108.41,0 87.197,21.213 157.803,91.82" fill="#ffffff" transform="scale(0.09,0.09)" />
          <polygon points="326.803,45.82 376.197,95.213 397.41,74 326.803,3.393 256.197,74 277.41,95.213" fill="#ffffff" transform="scale(0.09,0.09)" />
        </g>
      </svg>
      <svg x="689.5" y="620.07" height="800px" width="800px" xmlns="http://www.w3.org/2000/svg">
        <g>
          <path d="M88.942,484.606h306.723V128.322H88.942V484.606z M365.665,454.606H257.303V158.322h108.361V454.606z M118.942,158.322h108.361v296.285H118.942V158.322z" fill="#ffffff" transform="scale(0.09,0.09)" />
          <polygon points="228.41,21.213 207.197,0 157.803,49.393 108.41,0 87.197,21.213 157.803,91.82" fill="#ffffff" transform="scale(0.09,0.09)" />
          <polygon points="326.803,45.82 376.197,95.213 397.41,74 326.803,3.393 256.197,74 277.41,95.213" fill="#ffffff" transform="scale(0.09,0.09)" />
        </g>
      </svg>
      <svg x="292.5" y="528.13" height="44" width="44" xmlns="http://www.w3.org/2000/svg">
        <path d="M26,28.36H6v-0.72h20V28.36z M19,26.36h-6c-2.404,0-4.36-1.956-4.36-4.36v-8c0-0.199,0.161-0.36,0.36-0.36h14c0.199,0,0.36,0.161,0.36,0.36v1.64H25c1.302,0,2.36,1.059,2.36,2.36v2c0,1.302-1.059,2.36-2.36,2.36h-1.654C23.162,24.597,21.283,26.36,19,26.36z M9.36,14.36V22c0,2.007,1.633,3.64,3.64,3.64h6c2.007,0,3.64-1.633,3.64-3.64v-7.64C22.64,14.36,9.36,14.36,9.36,14.36z M23.36,21.64H25c0.904,0,1.64-0.735,1.64-1.64v-2c0-0.904-0.735-1.64-1.64-1.64h-1.64V21.64zM20.36,12h-0.72v-1.283c0-0.525,0.124-1.051,0.358-1.52c0.375-0.75,0.375-1.645,0-2.395c-0.234-0.469-0.358-0.995-0.358-1.52V5h0.721v0.283c0,0.414,0.098,0.829,0.282,1.198c0.476,0.952,0.476,2.087,0,3.039c-0.185,0.369-0.282,0.784-0.282,1.198L20.36,12L20.36,12z M12.36,12h-0.72v-1.283c0-0.525,0.124-1.05,0.359-1.52c0.375-0.75,0.375-1.645,0-2.395c-0.235-0.47-0.359-0.995-0.359-1.52V5h0.72v0.283c0,0.414,0.098,0.828,0.283,1.198c0.476,0.952,0.476,2.087,0,3.039c-0.185,0.37-0.283,0.784-0.283,1.198V12z M16.36,11h-0.72V9.717c0-0.525,0.124-1.05,0.359-1.52c0.375-0.75,0.375-1.645,0-2.395c-0.235-0.47-0.359-0.995-0.359-1.52V4h0.72v0.283c0,0.414,0.098,0.828,0.283,1.198c0.477,0.952,0.477,2.087,0,3.039c-0.185,0.37-0.283,0.784-0.283,1.198V11z" fill="#FFFFFF" transform="scale(1.37,1.37)" />
      </svg>
      <svg x="873.73" y="259.04" height="44" width="44" xmlns="http://www.w3.org/2000/svg">
        <path d="M26,28.36H6v-0.72h20V28.36z M19,26.36h-6c-2.404,0-4.36-1.956-4.36-4.36v-8c0-0.199,0.161-0.36,0.36-0.36h14c0.199,0,0.36,0.161,0.36,0.36v1.64H25c1.302,0,2.36,1.059,2.36,2.36v2c0,1.302-1.059,2.36-2.36,2.36h-1.654C23.162,24.597,21.283,26.36,19,26.36z M9.36,14.36V22c0,2.007,1.633,3.64,3.64,3.64h6c2.007,0,3.64-1.633,3.64-3.64v-7.64C22.64,14.36,9.36,14.36,9.36,14.36z M23.36,21.64H25c0.904,0,1.64-0.735,1.64-1.64v-2c0-0.904-0.735-1.64-1.64-1.64h-1.64V21.64zM20.36,12h-0.72v-1.283c0-0.525,0.124-1.051,0.358-1.52c0.375-0.75,0.375-1.645,0-2.395c-0.234-0.469-0.358-0.995-0.358-1.52V5h0.721v0.283c0,0.414,0.098,0.829,0.282,1.198c0.476,0.952,0.476,2.087,0,3.039c-0.185,0.369-0.282,0.784-0.282,1.198L20.36,12L20.36,12z M12.36,12h-0.72v-1.283c0-0.525,0.124-1.05,0.359-1.52c0.375-0.75,0.375-1.645,0-2.395c-0.235-0.47-0.359-0.995-0.359-1.52V5h0.72v0.283c0,0.414,0.098,0.828,0.283,1.198c0.476,0.952,0.476,2.087,0,3.039c-0.185,0.37-0.283,0.784-0.283,1.198V12z M16.36,11h-0.72V9.717c0-0.525,0.124-1.05,0.359-1.52c0.375-0.75,0.375-1.645,0-2.395c-0.235-0.47-0.359-0.995-0.359-1.52V4h0.72v0.283c0,0.414,0.098,0.828,0.283,1.198c0.477,0.952,0.477,2.087,0,3.039c-0.185,0.37-0.283,0.784-0.283,1.198V11z" fill="#FFFFFF" transform="scale(1.37,1.37)" />
      </svg>
    </g>
  </g>
</svg>