<?xml version="1.0" encoding="UTF-8"?>
<!DOCTYPE svg>
<svg xmlns="http://www.w3.org/2000/svg" version="1.1" width="2000px" height="1600px" viewBox="-0.5 -0.5 2000 1600">
  <g>
    <g id="background">
      <rect x="0" y="0" width="2000px" height="1600px" fill-opacity="0" />
    </g>
    <g id="rooms">
      <g id="B-01-Bulma">
        <rect x="405" y="368" width="208" height="91" />
      </g>
      <g id="B-02-Elliot-Alderson">
        <rect x="314" y="369" width="12" height="139" />
        <rect x="220" y="369" width="96" height="147" />
      </g>
      <g id="S-01-Stark">
        <rect x="397" y="540" width="13" height="119" />
        <rect x="421" y="638" width="8" height="14" />
        <rect x="408" y="638" width="14" height="21" />
        <rect x="443" y="519" width="140" height="27" />
        <rect x="582" y="531" width="36" height="16" />
        <rect x="408" y="543" width="210" height="96" />
      </g>
      <g id="S-02-Pru-Ha">
        <rect x="286" y="781" width="136" height="21" />
        <rect x="220" y="789" width="410" height="199" />
      </g>
      <g id="S-03-Mei-Hatsume">
        <rect x="634" y="805" width="11" height="74" />
        <rect x="642" y="789" width="63" height="20" />
        <rect x="644" y="799" width="131" height="188" />
      </g>
    </g>
    <g id="floorLines">
      <path d="M 395 570 L 395 538 L 412 538" fill="none" stroke-width="4" stroke-miterlimit="10" pointer-events="stroke" />
      <path d="M 584 517 L 442 517" fill="none" stroke-width="4" stroke-miterlimit="10" pointer-events="stroke" />
      <path d="M 628 523 L 583 523" fill="none" stroke-width="16" stroke-miterlimit="10" pointer-events="stroke" />
      <path d="M 395 600 L 395 661 L 424 661" fill="none" stroke-width="4" stroke-miterlimit="10" pointer-events="stroke" />
      <path d="M 430 654 L 430 640 L 528 640" fill="none" stroke-width="3" stroke-miterlimit="10" pointer-events="stroke" />
      <path d="M 528 642 L 621 642" fill="none" stroke-width="7" stroke-miterlimit="10" pointer-events="stroke" />
      <path d="M 428 652 L 428 700" fill="none" stroke-width="12" stroke-miterlimit="10" pointer-events="stroke" />
      <path d="M 217 784.14 L 286 784" fill="none" stroke-width="11" stroke-miterlimit="10" pointer-events="stroke" />
      <path d="M 209 357 L 209 1001" fill="none" stroke-width="22" stroke-miterlimit="10" pointer-events="stroke" />
      <path d="M 787 994 L 220 994" fill="none" stroke-width="14" stroke-miterlimit="10" pointer-events="stroke" />
      <path d="M 637 879 L 637 989" fill="none" stroke-width="14" stroke-miterlimit="10" pointer-events="stroke" />
      <path d="M 781 996 L 780 787" fill="none" stroke-width="12" stroke-miterlimit="10" pointer-events="stroke" />
      <path d="M 341 363 L 205 363" fill="none" stroke-width="12" stroke-miterlimit="10" pointer-events="stroke" />
      <path d="M 328 479 L 328 368" fill="none" stroke-width="4" stroke-miterlimit="10" pointer-events="stroke" />
      <path d="M 323 508 L 323 541" fill="none" stroke-width="14" stroke-miterlimit="10" pointer-events="stroke" />
      <path d="M 487 461 L 404 461 L 404 366" fill="none" stroke-width="4" stroke-miterlimit="10" pointer-events="stroke" />
      <path d="M 614 461 L 517 461" fill="none" stroke-width="4" stroke-miterlimit="10" pointer-events="stroke" />
      <path d="M 281 519 L 318 519" fill="none" stroke-width="6" stroke-miterlimit="10" pointer-events="stroke" />
      <path d="M 283 780 L 343 780" fill="none" stroke-width="3" stroke-miterlimit="10" pointer-events="stroke" />
      <path d="M 394 780 L 422 780" fill="none" stroke-width="3" stroke-miterlimit="10" pointer-events="stroke" />
      <path d="M 641 783 L 711 783 L 711 793 L 785 793" fill="none" stroke-width="12" stroke-miterlimit="10" pointer-events="stroke" />
      <path d="M 636 805 L 636 783 L 624 783 L 624 511" fill="none" stroke-width="12" stroke-miterlimit="10" pointer-events="stroke" />
      <path d="M 705 730 L 705 513" fill="none" stroke-width="12" stroke-miterlimit="10" pointer-events="stroke" />
      <path d="M 623 640 L 703 640" fill="none" stroke-width="12" stroke-miterlimit="10" pointer-events="stroke" />
      <path d="M 659 519 L 701 519" fill="none" stroke-width="12" stroke-miterlimit="10" pointer-events="stroke" />
      <path d="M 708 363 L 402 363" fill="none" stroke-width="12" stroke-miterlimit="10" pointer-events="stroke" />
      <path d="M 619 463 L 619 361" fill="none" stroke-width="13" stroke-miterlimit="10" pointer-events="stroke" />
      <path d="M 706 461 L 705 357" fill="none" stroke-width="12" stroke-miterlimit="10" pointer-events="stroke" />
      <path d="M 704 457 L 657 457" fill="none" stroke-width="8" stroke-miterlimit="10" pointer-events="stroke" />
      <path d="M 632 832 L 632 880" fill="none" stroke-width="4" stroke-miterlimit="10" pointer-events="stroke" />
      <path d="M 947 906 L 947 837" fill="none" stroke-width="6" stroke-miterlimit="10" pointer-events="stroke" />
      <path d="M 1048 711 L 1051 740 L 1163 740 L 1246 694 L 1325 847 L 1050 994 L 875 993 L 875 771" fill="none" stroke-width="12" stroke-miterlimit="10" pointer-events="stroke" />
      <path d="M 1065.73 711.07 L 1174.69 769.51 L 1065.73 827.94 Z" fill="#4F62EB" transform="rotate(-28,1120.21,769.51)" />
    </g>
    <g id="floorRect">
      <rect x="431" y="641" width="190" height="109" fill="#8f8f8f" />
      <text x="526" y="699" fill="rgb(240, 240, 240)" font-family="Helvetica" font-size="11px" text-anchor="middle">ESCALIER...</text>
      <rect x="422" y="749" width="203" height="40" />
      <rect x="216" y="516" width="67" height="69" />
      <rect x="408" y="508" width="35" height="35" />
      <rect x="306" y="594" width="34" height="34" />
      <rect x="628" y="644" width="73" height="135" fill="#8f8f8f" />
      <text x="665" y="715" fill="rgb(240, 240, 240)" font-family="Helvetica" font-size="11px" text-anchor="middle">ESCALIER...</text>
      <rect x="625" y="525" width="74" height="111" fill="#8f8f8f" />
      <text x="662" y="584" fill="rgb(240, 240, 240)" font-family="Helvetica" font-size="11px" text-anchor="middle">TOILETTES&#xa;</text>
      <rect x="624" y="368" width="77" height="85" fill="#8f8f8f" />
      <text x="663" y="414" fill="rgb(240, 240, 240)" font-family="Helvetica" font-size="11px" text-anchor="middle">TOILETTES&#xa;</text>
      <rect x="879.8" y="838" width="65.2" height="68" fill="#8f8f8f" />
      <text x="912" y="875" fill="rgb(240, 240, 240)" font-family="Helvetica" font-size="11px" text-anchor="middle">ASCENSEUR&#xa;</text>
      <rect x="1202.95" y="710.89" width="83.46" height="163.02" fill="#8f8f8f" transform="rotate(-28,1244.68,792.4)" />
      <rect x="878" y="905" width="72" height="92.9" />
      <rect x="1093.57" y="761.85" width="111.75" height="119" transform="rotate(-28,1149.44,821.35)" />
      <rect x="1212" y="772" width="65" height="34" fill="none" />
      <text x="1245" y="793" fill="rgb(240, 240, 240)" font-family="Helvetica" font-size="12px" text-anchor="middle">ESCALIER...</text>
    </g>
  </g>
</svg>